<svg width="134" height="86" viewBox="0 0 134 86" fill="none" xmlns="http://www.w3.org/2000/svg">
<path fill-rule="evenodd" clip-rule="evenodd" d="M117.961 29.4077C113.873 25.3192 107.244 25.3192 103.155 29.4077L102.095 28.3471L103.155 29.4077C99.0667 33.4963 99.0667 40.1251 103.155 44.2137C107.244 48.3023 113.873 48.3023 117.961 44.2137C122.05 40.1251 122.05 33.4963 117.961 29.4077ZM120.082 27.2855C114.821 22.0263 106.294 22.0266 101.034 27.2864C95.7738 32.5465 95.7738 41.0749 101.034 46.335C106.294 51.5952 114.822 51.5952 120.083 46.335C125.343 41.0749 125.343 32.5465 120.083 27.2864C120.082 27.2861 120.082 27.2858 120.082 27.2855Z" fill="#D2DEEE"/>
<path fill-rule="evenodd" clip-rule="evenodd" d="M78.9704 8.04217C72.3586 1.43044 61.6389 1.43045 55.0271 8.04216C48.4154 14.6539 48.4154 25.3737 55.0271 31.9854C61.6389 38.5971 72.3587 38.5971 78.9704 31.9854C85.5818 25.374 85.5821 14.6549 78.9714 8.04314C78.9711 8.04282 78.9707 8.04249 78.9704 8.04217ZM81.0917 5.92084C73.3084 -1.86245 60.6891 -1.86245 52.9058 5.92084L52.9058 5.92085C45.1225 13.7042 45.1225 26.3234 52.9058 34.1067C60.6892 41.89 73.3084 41.89 81.0917 34.1067C88.875 26.3234 88.875 13.7041 81.0917 5.92084Z" fill="#D2DEEE"/>
<path fill-rule="evenodd" clip-rule="evenodd" d="M30.846 29.4077C26.7575 25.3192 20.1286 25.3192 16.0401 29.4077C11.9515 33.4963 11.9515 40.1251 16.0401 44.2137C20.1286 48.3023 26.7575 48.3023 30.846 44.2137C34.9346 40.1251 34.9346 33.4963 30.846 29.4077ZM32.9673 27.2864C27.7072 22.0263 19.1789 22.0263 13.9187 27.2864C8.6586 32.5465 8.6586 41.0749 13.9187 46.335C19.1789 51.5952 27.7072 51.5952 32.9673 46.335C38.2275 41.0749 38.2275 32.5465 32.9673 27.2864Z" fill="#D2DEEE"/>
<path fill-rule="evenodd" clip-rule="evenodd" d="M111.054 63.1406C111.054 62.3122 111.725 61.6406 112.554 61.6406H117.293C126.292 61.6406 133.585 68.933 133.585 77.9323V84.417C133.585 85.2454 132.913 85.917 132.085 85.917C131.256 85.917 130.585 85.2454 130.585 84.417V77.9323C130.585 70.5898 124.635 64.6406 117.293 64.6406H112.554C111.725 64.6406 111.054 63.9691 111.054 63.1406Z" fill="#D2DEEE"/>
<path fill-rule="evenodd" clip-rule="evenodd" d="M16.7087 64.6406C9.36617 64.6406 3.41699 70.5898 3.41699 77.9323V84.417C3.41699 85.2454 2.74542 85.917 1.91699 85.917C1.08857 85.917 0.416992 85.2454 0.416992 84.417V77.9323C0.416992 68.933 7.70931 61.6406 16.7087 61.6406H21.4479C22.2763 61.6406 22.9479 62.3122 22.9479 63.1406C22.9479 63.9691 22.2763 64.6406 21.4479 64.6406H16.7087Z" fill="#D2DEEE"/>
<path fill-rule="evenodd" clip-rule="evenodd" d="M33.9062 74.9438C33.9062 62.6785 43.8492 52.7355 56.1146 52.7355H77.882C90.1473 52.7355 100.09 62.6785 100.09 74.9438V84.4164C100.09 85.2448 99.4188 85.9164 98.5903 85.9164C97.7619 85.9164 97.0903 85.2448 97.0903 84.4164V74.9438C97.0903 64.3353 88.4905 55.7355 77.882 55.7355H56.1146C45.5061 55.7355 36.9062 64.3353 36.9062 74.9438V84.4164C36.9062 85.2448 36.2347 85.9164 35.4062 85.9164C34.5778 85.9164 33.9062 85.2448 33.9062 84.4164V74.9438Z" fill="#D2DEEE"/>
</svg>
