<svg width="122" height="110" viewBox="0 0 122 110" fill="none" xmlns="http://www.w3.org/2000/svg">
<path fill-rule="evenodd" clip-rule="evenodd" d="M25.4838 15.0568C23.0374 15.0568 21.0542 17.04 21.0542 19.4864V29.8352H41.7517V19.4864C41.7517 17.04 39.7685 15.0568 37.3221 15.0568H25.4838ZM18.0752 19.4864C18.0752 15.3947 21.3922 12.0778 25.4838 12.0778H37.3221C41.4138 12.0778 44.7307 15.3947 44.7307 19.4864V31.3247C44.7307 32.1473 44.0639 32.8142 43.2412 32.8142H19.5647C18.7421 32.8142 18.0752 32.1473 18.0752 31.3247V19.4864Z" fill="#D2DEEE"/>
<path fill-rule="evenodd" clip-rule="evenodd" d="M31.4055 0.238525C32.2282 0.238525 32.895 0.905402 32.895 1.72804V13.5663C32.895 14.3889 32.2282 15.0558 31.4055 15.0558C30.5829 15.0558 29.916 14.3889 29.916 13.5663V1.72804C29.916 0.905402 30.5829 0.238525 31.4055 0.238525Z" fill="#D2DEEE"/>
<path fill-rule="evenodd" clip-rule="evenodd" d="M13.645 32.8141C11.1986 32.8141 9.21535 34.7973 9.21535 37.2437V108.273C9.21535 109.096 8.54847 109.763 7.72584 109.763C6.9032 109.763 6.23633 109.096 6.23633 108.273V37.2437C6.23633 33.152 9.55329 29.8351 13.645 29.8351H49.1598C53.2514 29.8351 56.5684 33.152 56.5684 37.2437V55.0011C56.5684 55.8238 55.9015 56.4906 55.0789 56.4906C54.2563 56.4906 53.5894 55.8238 53.5894 55.0011V37.2437C53.5894 34.7973 51.6062 32.8141 49.1598 32.8141H13.645Z" fill="#D2DEEE"/>
<path fill-rule="evenodd" clip-rule="evenodd" d="M80.3119 9.42037C78.9519 8.91066 77.4285 9.09999 76.2346 9.9271C75.0408 10.7542 74.3283 12.1137 74.3277 13.566C74.3277 13.5659 74.3277 13.5661 74.3277 13.566V54.9999C74.3277 55.8226 73.6608 56.4894 72.8381 56.4894C72.0155 56.4894 71.3486 55.8226 71.3486 54.9999V13.566C71.3495 11.1368 72.5413 8.86179 74.5381 7.47836C76.5349 6.09494 79.083 5.7783 81.3577 6.63096L110.953 17.7293C113.847 18.814 115.764 21.5809 115.762 24.6712V108.272C115.762 109.095 115.095 109.762 114.272 109.762C113.449 109.762 112.783 109.095 112.783 108.272V24.6703C112.784 22.8226 111.638 21.1674 109.908 20.5188L80.3119 9.42037Z" fill="#D2DEEE"/>
<path fill-rule="evenodd" clip-rule="evenodd" d="M43.2407 56.4895C40.7943 56.4895 38.8111 58.4727 38.8111 60.9191V108.272C38.8111 109.095 38.1442 109.762 37.3215 109.762C36.4989 109.762 35.832 109.095 35.832 108.272V60.9191C35.832 56.8275 39.149 53.5105 43.2407 53.5105H78.7554C82.8471 53.5105 86.164 56.8275 86.164 60.9191V108.272C86.164 109.095 85.4972 109.762 84.6745 109.762C83.8519 109.762 83.185 109.095 83.185 108.272V60.9191C83.185 58.4727 81.2018 56.4895 78.7554 56.4895H43.2407Z" fill="#D2DEEE"/>
<path fill-rule="evenodd" clip-rule="evenodd" d="M50.6289 88.7401C50.6289 87.9175 51.2958 87.2506 52.1184 87.2506H69.8758C70.6985 87.2506 71.3653 87.9175 71.3653 88.7401C71.3653 89.5628 70.6985 90.2296 69.8758 90.2296H52.1184C51.2958 90.2296 50.6289 89.5628 50.6289 88.7401Z" fill="#D2DEEE"/>
<path fill-rule="evenodd" clip-rule="evenodd" d="M50.6289 72.7583C50.6289 71.9357 51.2958 71.2688 52.1184 71.2688H69.8758C70.6985 71.2688 71.3653 71.9357 71.3653 72.7583C71.3653 73.5809 70.6985 74.2478 69.8758 74.2478H52.1184C51.2958 74.2478 50.6289 73.5809 50.6289 72.7583Z" fill="#D2DEEE"/>
<path fill-rule="evenodd" clip-rule="evenodd" d="M0.320312 108.272C0.320312 107.45 0.987189 106.783 1.80982 106.783H120.192C121.015 106.783 121.682 107.45 121.682 108.272C121.682 109.095 121.015 109.762 120.192 109.762H1.80982C0.987189 109.762 0.320312 109.095 0.320312 108.272Z" fill="#D2DEEE"/>
</svg>
